<svg width="249" height="227" viewBox="0 0 249 227" fill="none" xmlns="http://www.w3.org/2000/svg"><path fill-rule="evenodd" clip-rule="evenodd" d="M157.075 175.3c1.598-1.894 2.398-4.549 2.398-7.961V153.86h-21.238v13.479c0 3.412.864 6.067 2.593 7.961 1.729 1.893 4.47 2.84 8.221 2.84 3.752 0 6.427-.947 8.026-2.84zm-25.985 11.414c-3.523-4.19-5.285-10.173-5.285-17.951V153.86H78V139h94v30.735c0 7.084-1.86 12.734-5.579 16.946-3.719 4.213-9.477 6.319-17.274 6.319-8.514 0-14.533-2.096-18.057-6.286z" fill="#FFAB4F"/><mask id="mask0" maskUnits="userSpaceOnUse" x="0" y="0" width="249" height="227"><path fill-rule="evenodd" clip-rule="evenodd" d="M0 227h249V0H0v227z" fill="#fff"/></mask><g mask="url(#mask0)" fill-rule="evenodd" clip-rule="evenodd"><path d="M69.281 34.033h156.397v-11.23H69.281v11.23zM22.979 204.198h202.699V56.835H22.979v147.363zm5.647-181.663c3.138 0 5.681 2.524 5.681 5.637 0 3.113-2.543 5.637-5.68 5.637-3.138 0-5.682-2.523-5.682-5.637 0-3.113 2.544-5.637 5.681-5.637zm23.323 0c3.137 0 5.68 2.524 5.68 5.637 0 3.113-2.543 5.637-5.68 5.637-3.138 0-5.681-2.523-5.681-5.637 0-3.113 2.543-5.637 5.68-5.637zM11.579 0C5.222 0 0 4.944 0 11.254v204.43C0 221.992 5.222 227 11.58 227h225.765c6.362 0 11.655-5.008 11.655-11.316V11.254C249 4.944 243.707 0 237.345 0H11.579z" fill="#657D95"/><path d="M98 108.6L83.6 94.493l14.397-14.1L88.394 71 73.996 85.1 59.599 71 50 80.392 64.4 94.5 50 108.6l9.6 9.4 14.396-14.1L88.399 118 98 108.6z" fill="#FFAB4F"/><path d="M200 108.6l-14.4-14.107 14.397-14.1L190.394 71l-14.398 14.1L161.599 71 152 80.392 166.399 94.5 152 108.6l9.599 9.4 14.397-14.1 14.403 14.1 9.601-9.4z" fill="#657D95"/></g></svg>