<svg width="200" height="235" viewBox="0 0 200 235" fill="none" xmlns="http://www.w3.org/2000/svg"><path fill-rule="evenodd" clip-rule="evenodd" d="M147 108c-11.041 0-20-8.945-20-20 0-11.041 8.959-20 20-20 11.042 0 20 8.959 20 20 0 11.055-8.958 20-20 20zM33 88c0-11.041 8.959-20 20-20 11.042 0 20 8.959 20 20 0 11.055-8.958 20-20 20-11.041 0-20-8.945-20-20zm67-88C-.029 0 0 93.046 0 93.046V235l25.018-33.196L49.993 235l24.978-33.196L99.951 235l24.979-33.196L149.91 235l25-33.196L200 235V93.046S200.029 0 100 0z" fill="#657D95"/></svg>