<svg width="1188" height="308" viewBox="0 0 1188 308" fill="none" xmlns="http://www.w3.org/2000/svg"><path opacity=".142" fill-rule="evenodd" clip-rule="evenodd" d="M0 308.793C138 308.793 159 189 252.254 189 323.133 189 375 305.798 504 308.793H0zm690 30C828 338.793 849 219 942.254 219 1013.13 219 1065 335.798 1194 338.793H690z" fill="#657D95"/><path opacity=".72" fill-rule="evenodd" clip-rule="evenodd" d="M231 309c162 0 243.008-177 363-177 102 0 186 177 363 177H231z" fill="#1F8EFA"/><path fill="#242E42" d="M114 297h3v21h-3z"/><circle cx="115.5" cy="283.5" r="16.5" fill="#00A1F0"/><ellipse opacity=".16" cx="115.5" cy="291" rx="16.5" ry="9" fill="#000"/><path fill="#242E42" d="M621 297h3v12h-3z"/><circle cx="622.5" cy="283.5" r="16.5" fill="#00A1F0"/><circle opacity=".16" cx="622.5" cy="283.5" r="16.5" fill="#1F8EFA"/><path fill="#242E42" d="M708 289h9v18h-9z"/><circle cx="712.5" cy="260.5" r="28.5" fill="#00A1F0"/><circle opacity=".16" cx="712.5" cy="260.5" r="28.5" fill="#1F8EFA"/><path fill-rule="evenodd" clip-rule="evenodd" d="M117.581 172.631C115.031 159.731 103.65 150 90 150c-10.838 0-20.231 6.15-24.938 15.131C53.794 166.35 45 175.894 45 187.5c0 12.431 10.069 22.5 22.5 22.5h48.75c10.35 0 18.75-8.4 18.75-18.75 0-9.9-7.706-17.925-17.419-18.619zM694.548 31.684C698.287 13.624 714.98 0 735 0c15.895 0 29.673 8.61 36.575 21.184C788.103 22.89 801 36.25 801 52.5c0 17.404-14.767 31.5-33 31.5h-71.5C681.32 84 669 72.24 669 57.75c0-13.86 11.302-25.095 25.548-26.066z" fill="#fff"/></svg>