<svg version="1.1" xmlns="http://www.w3.org/2000/svg" xmlns:xlink="http://www.w3.org/1999/xlink" x="0px" y="0px"
	 viewBox="0 0 20 10" style="enable-background:new 0 0 20 10;" xml:space="preserve" id="logo">

<linearGradient id="circle2" x1="0" y1="1" x2="0.5" y2="0">
	<stop offset="0%" stop-opacity="1" stop-color="#6AC5A4"/>
		<stop offset="40%" stop-opacity="1" stop-color="#6AC5A4">
		<animate attributeName="offset" values="0;1" repeatCount="indefinite" dur="2s" begin="0s"/>
	</stop>
		<stop offset="40%" stop-opacity="0" stop-color="#6AC5A4">
		<animate attributeName="offset" values="0;1" repeatCount="indefinite" dur="2s" begin="0s"/>
	</stop>
		<stop offset="100%" stop-opacity="0" stop-color="#6AC5A4"/>
</linearGradient>
<circle fill="url(#circle2)" class="st1" cx="11.33" cy="4.67" r="0.12"/>


<linearGradient id="circle3" x1="0" y1="1" x2="0.5" y2="0">
	<stop offset="0%" stop-opacity="1" stop-color="#6AC5A4"/>
		<stop offset="40%" stop-opacity="1" stop-color="#6AC5A4">
		<animate attributeName="offset" values="0;1" repeatCount="indefinite" dur="2s" begin="0s"/>
	</stop>
		<stop offset="40%" stop-opacity="0" stop-color="#6AC5A4">
		<animate attributeName="offset" values="0;1" repeatCount="indefinite" dur="2s" begin="0s"/>
	</stop>
		<stop offset="100%" stop-opacity="0" stop-color="#6AC5A4"/>
</linearGradient>
<circle fill="url(#circle3)" class="st1" cx="11.33" cy="5.39" r="0.18"/>

<linearGradient id="circle4" x1="0" y1="1" x2="0.5" y2="0">
	<stop offset="0%" stop-opacity="1" stop-color="#6AC5A4"/>
		<stop offset="40%" stop-opacity="1" stop-color="#6AC5A4">
		<animate attributeName="offset" values="0;1" repeatCount="indefinite" dur="2s" begin="0s"/>
	</stop>
		<stop offset="40%" stop-opacity="0" stop-color="#6AC5A4">
		<animate attributeName="offset" values="0;1" repeatCount="indefinite" dur="2s" begin="0s"/>
	</stop>
		<stop offset="100%" stop-opacity="0" stop-color="#6AC5A4"/>
</linearGradient>
<circle fill="url(#circle4)" class="st1" cx="11.35" cy="4.33" r="0.05"/>
<!---->
<linearGradient id="circle5" x1="0" y1="1" x2="0.5" y2="0">
	<stop offset="0%" stop-opacity="1" stop-color="#6AC5A4"/>
		<stop offset="40%" stop-opacity="1" stop-color="#6AC5A4">
		<animate attributeName="offset" values="0;1" repeatCount="indefinite" dur="2s" begin="0s"/>
	</stop>
		<stop offset="40%" stop-opacity="0" stop-color="#6AC5A4">
		<animate attributeName="offset" values="0;1" repeatCount="indefinite" dur="2s" begin="0s"/>
	</stop>
		<stop offset="100%" stop-opacity="0" stop-color="#6AC5A4"/>
</linearGradient>
<circle fill="url(#circle5)" class="st1" cx="11.07" cy="4.07" r="0.05"/>

<linearGradient id="circle1" x1="0" y1="1" x2="0.5" y2="0">
	<stop offset="0%" stop-opacity="1" stop-color="#6AC5A4"/>
	<stop offset="40%" stop-opacity="1" stop-color="#6AC5A4">
		<animate attributeName="offset" values="0;1" repeatCount="indefinite" dur="2s" begin="0s"/>
	</stop>
	<stop offset="40%" stop-opacity="0" stop-color="#6AC5A4">
		<animate attributeName="offset" values="0;1" repeatCount="indefinite" dur="2s" begin="0s"/>
	</stop>
	<stop offset="100%" stop-opacity="0" stop-color="#6AC5A4"/>
</linearGradient>
<circle fill="url(#circle1)" class="st1" cx="11.81" cy="5.8" r="0.21"/>
<!--<g fill="url(#circle1)">-->

<!--</g>-->
<linearGradient id="circleLast" x1="0" y1="1" x2="0.5" y2="0">
	<stop offset="0%" stop-opacity="1" stop-color="#6AC5A4"/>
		<stop offset="40%" stop-opacity="1" stop-color="#6AC5A4">
		<animate attributeName="offset" values="0;1" repeatCount="indefinite" dur="2s" begin="0s"/>
	</stop>
		<stop offset="40%" stop-opacity="0" stop-color="#6AC5A4">
		<animate attributeName="offset" values="0;1" repeatCount="indefinite" dur="2s" begin="0s"/>
	</stop>
		<stop offset="100%" stop-opacity="0" stop-color="#6AC5A4"/>
</linearGradient>

<circle fill="url(#circleLast)" class="st1" cx="11.21" cy="3.71" r="0.06"/>

<g>
	<path class="st0" d="M10.58,8.03l0.28-1.19c0.22-0.92,0.22-1.88,0.01-2.8l-0.05-0.21c-0.02,0.06-0.06,0.19-0.08,0.26L9.67,8.62
		C9.6,8.91,9.81,9.17,10.07,9.2c0.02,0,0.03,0,0.05,0c0.06,0,0.12-0.01,0.18-0.04L10.58,8.03z" fill="#3D3D3E"/>
	<path class="st0" d="M14.58,7.43L11.54,3.9c-0.03-0.04-0.07-0.06-0.1-0.08c0.22,0.99,0.69,1.9,1.35,2.67l0.65,0.76l0.93,0.93
		C14.68,8.08,14.81,7.69,14.58,7.43z" fill="#3D3D3E"/>
	<path class="st0" d="M13.25,7.47L13.25,7.47C12.01,7.13,11,7.93,10.87,8.03l-0.22,0.9l0.74-0.49c0.11-0.07,0.23-0.13,0.35-0.19
		c0.16-0.07,0.32-0.12,0.49-0.16c0,0,0.01,0,0.01,0c0.11-0.02,0.22-0.04,0.32-0.04c0.04,0,0.09,0,0.13,0c0.08,0,0.17,0.01,0.25,0.01
		l1.01,0.11L13.25,7.47z" fill="#3D3D3E"/>
</g>
<defs>
	<linearGradient id="lg" x1="0.5" y1="1" x2="0.5" y2="0">
		<stop offset="0%" stop-opacity="1" stop-color="#6AC5A4"/>
		<stop offset="40%" stop-opacity="1" stop-color="#6AC5A4">
			<animate attributeName="offset" values="0;1" repeatCount="indefinite" dur="2s" begin="0s"/>
		</stop>
		<stop offset="40%" stop-opacity="0" stop-color="#6AC5A4">
			<animate attributeName="offset" values="0;1" repeatCount="indefinite" dur="2s"  begin="0s"/>
		</stop>
		<stop offset="100%" stop-opacity="0" stop-color="#6AC5A4"/>
	</linearGradient>
</defs>
<g fill="url(#lg)">
	<path class="st1" d="M11.32,7.41c0.23-0.1,0.47-0.18,0.7-0.23h0h0h0.01c0.15-0.03,0.31-0.05,0.48-0.06c0.06,0,0.13-0.01,0.2-0.01
		c0.09,0,0.15,0,0.24,0.01c0,0-0.39-0.45-0.73-0.98C12.09,6.18,12,6.28,11.53,6.09c-0.11-0.04-0.21,0-0.31,0.08
		c-0.08,0.73-0.26,1.42-0.26,1.42C11.1,7.5,11.18,7.46,11.32,7.41z"/>
</g>
</svg>
