<svg width="116" height="92" viewBox="0 0 116 92" fill="none" xmlns="http://www.w3.org/2000/svg">
<path d="M2 24V78C2 84.6274 7.37258 90 14 90H102C108.627 90 114 84.6274 114 78V24M2 24V14C2 7.37258 7.37258 2 14 2H102C108.627 2 114 7.37258 114 14V24M2 24H114M103.5 74V74C103.5 76.2091 101.709 78 99.5 78H17C14.7909 78 13 76.2091 13 74V74C13 71.7909 14.7909 70 17 70H99.5C101.709 70 103.5 71.7909 103.5 74ZM103.5 57.5V57.5C103.5 59.7091 101.709 61.5 99.5 61.5H17C14.7909 61.5 13 59.7091 13 57.5V57.5C13 55.2909 14.7909 53.5 17 53.5H99.5C101.709 53.5 103.5 55.2909 103.5 57.5ZM103.5 41V41C103.5 43.2091 101.709 45 99.5 45H17C14.7909 45 13 43.2091 13 41V41C13 38.7909 14.7909 37 17 37H99.5C101.709 37 103.5 38.7909 103.5 41Z" stroke="#B1BDD6" stroke-width="4"/>
</svg>
