<svg width="233" height="273" viewBox="0 0 233 273" fill="none" xmlns="http://www.w3.org/2000/svg">
<rect x="173.607" y="135.771" width="14.2067" height="101.633" rx="7.09625" transform="rotate(9.98576 173.607 135.771)" fill="#172863"/>
<rect x="171.792" y="108.266" width="42.0737" height="44.8058" rx="10.6444" transform="rotate(9.98576 171.792 108.266)" fill="#62C0F4"/>
<path d="M152.607 217.228C153.627 211.438 159.146 207.571 164.936 208.59L185.406 212.195C191.196 213.214 195.063 218.734 194.043 224.523L191.768 237.449C189.753 248.892 178.844 256.534 167.402 254.52C155.959 252.505 148.317 241.596 150.331 230.153L152.607 217.228Z" fill="#62C0F4"/>
<rect x="157.801" y="105.802" width="42.0737" height="44.8058" rx="10.6444" transform="rotate(9.98576 157.801 105.802)" fill="#1E90D0"/>
<path d="M138.923 213.017C139.773 208.192 144.373 204.969 149.197 205.819L173.162 210.038C177.987 210.888 181.209 215.488 180.36 220.312L177.776 234.985C175.762 246.428 164.852 254.07 153.41 252.056C141.968 250.041 134.325 239.132 136.34 227.69L138.923 213.017Z" fill="#1E90D0"/>
<circle cx="100.714" cy="187.948" r="6.65273" transform="rotate(9.98576 100.714 187.948)" fill="#E83B5A"/>
<circle cx="98.5915" cy="184.245" r="6.65273" transform="rotate(9.98576 98.5915 184.245)" fill="#EBD044"/>
<circle cx="104.825" cy="180.536" r="11.5314" transform="rotate(9.98576 104.825 180.536)" fill="#EBD044"/>
<circle cx="107.925" cy="219.423" r="11.5314" transform="rotate(9.98576 107.925 219.423)" fill="#EBD044"/>
<circle cx="107.96" cy="181.456" r="6.65273" transform="rotate(9.98576 107.96 181.456)" fill="#EBD044"/>
<circle cx="116.085" cy="184.973" r="5.42924" transform="rotate(9.98576 116.085 184.973)" fill="#E83B5A"/>
<circle r="6.65273" transform="matrix(-0.984851 -0.173404 -0.173404 0.984851 93.5596 183.359)" fill="#EBD044"/>
<circle r="5.40991" transform="matrix(-0.984851 -0.173404 -0.173404 0.984851 94.711 174.532)" fill="#E83B5A"/>
<rect x="76.3176" y="165.246" width="63.9302" height="18.578" rx="7.09625" transform="rotate(9.98576 76.3176 165.246)" fill="#172863"/>
<path d="M35.4324 76.0425C38.3207 59.6384 53.9602 48.6817 70.3643 51.57L194.464 73.4203C210.868 76.3086 221.825 91.9481 218.936 108.352L206.09 181.315C204.561 189.999 196.281 195.8 187.596 194.271L35.5418 167.499C26.8573 165.969 21.0567 157.69 22.5858 149.005L35.4324 76.0425Z" fill="#62C0F4"/>
<path d="M35.4324 76.0425C38.3207 59.6384 53.9602 48.6817 70.3643 51.57L194.464 73.4203C210.868 76.3086 221.825 91.9481 218.936 108.352L216.586 121.701L33.0821 89.3911L35.4324 76.0425Z" fill="#C0EAF3"/>
<path d="M35.4324 76.0425C38.3207 59.6384 53.9602 48.6817 70.3643 51.57L79.8412 53.2386C96.2452 56.1269 107.202 71.7664 104.314 88.1705L91.467 161.133C89.938 169.818 81.6582 175.618 72.9737 174.089L35.5418 167.499C26.8573 165.969 21.0567 157.69 22.5858 149.005L35.4324 76.0425Z" fill="#1E90D0"/>
<path d="M133.369 36.5867C133.683 34.8035 135.384 33.6124 137.167 33.9264C138.95 34.2404 140.141 35.9405 139.827 37.7237L134.45 68.2646C134.28 69.2295 133.36 69.8741 132.395 69.7042L129.432 69.1824C128.467 69.0125 127.822 68.0925 127.992 67.1276L133.369 36.5867Z" fill="#172863"/>
<ellipse cx="138.209" cy="28.0068" rx="10.9282" ry="10.9282" transform="rotate(9.98576 138.209 28.0068)" fill="#E83B5A"/>
<ellipse cx="132.953" cy="23.198" rx="2.18565" ry="2.18565" transform="rotate(9.98576 132.953 23.198)" fill="#EBD044"/>
<path d="M123.775 97.5849C124.455 93.7252 128.135 91.1471 131.995 91.8267L187.905 101.671C191.764 102.35 194.342 106.03 193.663 109.89L190.818 126.048C190.138 129.908 186.458 132.486 182.599 131.806L126.689 121.962C122.829 121.283 120.251 117.603 120.93 113.743L123.775 97.5849Z" fill="#172863"/>
<rect x="134.566" y="97.6836" width="9.31382" height="14.1925" rx="3.54812" transform="rotate(9.98576 134.566 97.6836)" fill="#C0EAF3"/>
<rect x="174.315" y="104.682" width="9.31382" height="14.1925" rx="3.54812" transform="rotate(9.98576 174.315 104.682)" fill="#C0EAF3"/>
<rect x="43.3784" y="112.842" width="14.2067" height="101.633" rx="7.09625" transform="rotate(9.98576 43.3784 112.842)" fill="#172863"/>
<rect x="41.7532" y="84.2603" width="42.0737" height="44.8058" rx="10.6444" transform="rotate(9.98576 41.7532 84.2603)" fill="#62C0F4"/>
<path d="M20.1047 207.214C21.1241 201.424 26.6439 197.557 32.4336 198.576L52.9037 202.18C58.6934 203.2 62.5604 208.72 61.541 214.509L59.2652 227.435C57.2505 238.877 46.3415 246.52 34.8991 244.505C23.4568 242.491 15.8142 231.582 17.8288 220.139L20.1047 207.214Z" fill="#62C0F4"/>
<rect x="27.7615" y="81.7964" width="42.0737" height="44.8058" rx="10.6444" transform="rotate(9.98576 27.7615 81.7964)" fill="#1E90D0"/>
<path d="M6.4206 203.003C7.27009 198.178 11.8699 194.955 16.6947 195.805L40.6592 200.024C45.4839 200.874 48.7065 205.474 47.857 210.298L45.2735 224.971C43.2588 236.414 32.3498 244.056 20.9074 242.042C9.46511 240.027 1.82246 229.118 3.83712 217.675L6.4206 203.003Z" fill="#1E90D0"/>
<g clip-path="url(#clip0)">
<path d="M108.704 135.714C109.043 133.784 110.883 132.495 112.813 132.834L191.926 146.764C193.856 147.104 195.145 148.944 194.805 150.874L194.52 152.495C194.18 154.425 192.34 155.714 190.41 155.374L111.297 141.445C109.367 141.105 108.078 139.265 108.418 137.335L108.704 135.714Z" fill="#172863"/>
<path d="M195.368 147.37L201.92 148.524L200.381 157.26L193.83 156.106L195.368 147.37Z" fill="#E83B5A"/>
</g>
<defs>
<clipPath id="clip0">
<path d="M108.704 135.714C109.043 133.784 110.883 132.495 112.813 132.834L191.926 146.764C193.856 147.104 195.145 148.944 194.805 150.874L194.52 152.495C194.18 154.425 192.34 155.714 190.41 155.374L111.297 141.445C109.367 141.105 108.078 139.265 108.418 137.335L108.704 135.714Z" fill="white"/>
</clipPath>
</defs>
</svg>
